/* XPM */
static char * C:\Users\Grace\Documents\UBC_Grace\Year_3\CPEN_391\391_Computer\Graphics\cloudsun_xpm[] = {
"50 50 65 1",
" 	c None",
".	c #000000",
"+	c #2F343F",
"@	c #63676E",
"#	c #979B9E",
"$	c #2F343F",
"%	c #505659",
"&	c #7D8A83",
"*	c #222D31",
"=	c #282B28",
"-	c #133410",
";	c #212D32",
">	c #37264B",
",	c #521F52",
"'	c #20323F",
")	c #203537",
"!	c #293337",
"~	c #C5E89B",
"{	c #96C161",
"]	c #519331",
"^	c #306E12",
"/	c #2B4D00",
"(	c #6CA299",
"_	c #43877B",
":	c #246C60",
"<	c #0D5146",
"[	c #00362D",
"}	c #FFEFAA",
"|	c #D4C06A",
"1	c #AC9432",
"2	c #806B15",
"3	c #554500",
"4	c #FFD8AA",
"5	c #D4A36A",
"6	c #AC7332",
"7	c #804E15",
"8	c #552E00",
"9	c #FFAAAA",
"0	c #D4706A",
"a	c #AA3939",
"b	c #801515",
"c	c #550000",
"d	c #CB87AF",
"e	c #A95486",
"f	c #651142",
"g	c #440028",
"h	c #708FA3",
"i	c #486F88",
"j	c #123852",
"k	c #123852",
"l	c #032236",
"m	c #8C7AAE",
"n	c #675091",
"o	c #472E74",
"p	c #2D1657",
"q	c #18063A",
"r	c #0D190D",
"s	c #020E02",
"t	c #06100E",
"u	c #1B1A0A",
"v	c #120C03",
"w	c #46454D",
"x	c #1D1C21",
"y	c #050C14",
"z	c #FBFBFB",
"99999999999999999999999999999999999999999999999999",
"99999999999999999999999999999999999999999999999999",
"99999999999999999999999999999999999999999999999999",
"99999999999999999999999999999999999999999999999999",
"99999999999999999999999999999999999999999999999999",
"99999999999999999999999999999999999999999999999999",
"9999999999999999999999999999999999zz99999999999999",
"999999999999999999999999999zz9999zzzz9999999999999",
"999999999999999999999999999zzz999zzzz9999zz9999999",
"999999999999999999999999999zzz9999zz9999zzzz999999",
"999999999999999999999999999zzz9999999999zzz9999999",
"999999999999999999999999999999999zzz99999zz9999999",
"9999999999999999999999zz999999zzzzzzzzz99999999999",
"999999999999999999999zzzz9999zzzzzzzzzzzz9999zzz99",
"9999999999999999999999zzz999zzzzzzzzzzzzzz99zzzz99",
"999999999999999999999999999zzzzzzzzzzzzzzzz99zzz99",
"99999999999999999999999999999zzzzzzzzzzzzzz99zz999",
"9999999999999999999zzzzzzzz999zzzzzzzzzzzzzz999999",
"99999999999999999zzzzzzzzzzz999zzzzzzzzzzzzz999999",
"9999999999999999zzzzzzzzzzzzzz99zzzzzzzzzzzz999999",
"999999999999999zzzzzzzzzzzzzzzz99zzzzzzzzzzz99zzzz",
"99999999999999zzzzzzzzzzzzzzzzz999zzzzzzzzzz99zzzz",
"9999999999999zzzzzzzzzzzzzzzzzzz99zzzzzzzzzz99zzz9",
"9999999999999zzzzzzzzzzzzzzzzzzzz99zzzzzzzzz999999",
"999999999999zzzzzzzzzzzzzzzzzzzzz9999999zzzz999999",
"999999999999zzzzzzzzzzzzzzzzzzzzz999999999z9999999",
"99999999zzzzzzzzzzzzzzzzzzzzzzzzzzzzzzzz99999zz999",
"99999zzzzzzzzzzzzzzzzzzzzzzzzzzzzzzzzzzzzz99zzzz99",
"999zzzzzzzzzzzzzzzzzzzzzzzzzzzzzzzzzzzzzzzz99zzz99",
"99zzzzzzzzzzzzzzzzzzzzzzzzzzzzzzzzzzzzzzzzzz99z999",
"9zzzzzzzzzzzzzzzzzzzzzzzzzzzzzzzzzzzzzzzzzzz999999",
"9zzzzzzzzzzzzzzzzzzzzzzzzzzzzzzzzzzzzzzzzzzzz99999",
"9zzzzzzzzzzzzzzzzzzzzzzzzzzzzzzzzzzzzzzzzzzzz99999",
"zzzzzzzzzzzzzzzzzzzzzzzzzzzzzzzzzzzzzzzzzzzzz99999",
"zzzzzzzzzzzzzzzzzzzzzzzzzzzzzzzzzzzzzzzzzzzzz99999",
"zzzzzzzzzzzzzzzzzzzzzzzzzzzzzzzzzzzzzzzzzzzzz99999",
"zzzzzzzzzzzzzzzzzzzzzzzzzzzzzzzzzzzzzzzzzzzzz99999",
"zzzzzzzzzzzzzzzzzzzzzzzzzzzzzzzzzzzzzzzzzzzzz99999",
"9zzzzzzzzzzzzzzzzzzzzzzzzzzzzzzzzzzzzzzzzzzzz99999",
"9zzzzzzzzzzzzzzzzzzzzzzzzzzzzzzzzzzzzzzzzzzz999999",
"99zzzzzzzzzzzzzzzzzzzzzzzzzzzzzzzzzzzzzzzzzz999999",
"999zzzzzzzzzzzzzzzzzzzzzzzzzzzzzzzzzzzzzzzz9999999",
"9999zzzzzzzzzzzzzzzzzzzzzzzzzzzzzzzzzzzzzz99999999",
"99999zzzzzzzzzzzzzzzzzzzzzzzzzzzzzzzzzzz9999999999",
"99999999999999999999999999999999999999999999999999",
"99999999999999999999999999999999999999999999999999",
"99999999999999999999999999999999999999999999999999",
"99999999999999999999999999999999999999999999999999",
"99999999999999999999999999999999999999999999999999",
"99999999999999999999999999999999999999999999999999"};
