/* XPM */
static char * C:\Users\Grace\Downloads\pixel\rain_xpm[] = {
"50 53 64 1",
" 	c #000000",
".	c #2F343F",
"+	c #63676E",
"@	c #979B9E",
"#	c #2F343F",
"$	c #505659",
"%	c #7D8A83",
"&	c #222D31",
"*	c #282B28",
"=	c #133410",
"-	c #212D32",
";	c #37264B",
">	c #521F52",
",	c #20323F",
"'	c #203537",
")	c #293337",
"!	c #C5E89B",
"~	c #96C161",
"{	c #519331",
"]	c #306E12",
"^	c #2B4D00",
"/	c #6CA299",
"(	c #43877B",
"_	c #246C60",
":	c #0D5146",
"<	c #00362D",
"[	c #FFEFAA",
"}	c #D4C06A",
"|	c #AC9432",
"1	c #806B15",
"2	c #554500",
"3	c #FFD8AA",
"4	c #D4A36A",
"5	c #AC7332",
"6	c #804E15",
"7	c #552E00",
"8	c #FFAAAA",
"9	c #D4706A",
"0	c #AA3939",
"a	c #801515",
"b	c #550000",
"c	c #CB87AF",
"d	c #A95486",
"e	c #651142",
"f	c #440028",
"g	c #708FA3",
"h	c #486F88",
"i	c #123852",
"j	c #123852",
"k	c #032236",
"l	c #8C7AAE",
"m	c #675091",
"n	c #472E74",
"o	c #2D1657",
"p	c #18063A",
"q	c #0D190D",
"r	c #020E02",
"s	c #06100E",
"t	c #1B1A0A",
"u	c #120C03",
"v	c #1E0705",
"w	c #19040F",
"x	c #050C14",
"y	c #FBFBFB",
"ssssssssssssssssssssssssssssssssssssssssssssssssss",
"ssssssssssssssssssssssssssssssssssssssssssssssssss",
"ssssssssssssssssssssssssssssssssssssssssssssssssss",
"ssssssssssssssssssssssssssssssssssssssssssssssssss",
"ssssssssssssssssssssssssssssssssssssssssssssssssss",
"ssssssssssssssssssssss*.))*sssssssssssssssssssssss",
"sssssssssssssssssss*.$$$$$$$)sssssssssssssssssssss",
"ssssssssssssssssss*$$$$$$$$$$.ssssssssssssssssssss",
"sssssssssssssssss*$$$$$$$$$$$$$.,,&sssssssssssssss",
"sssssssssssssssss$$$$$$$$$$$$$$.,,,.ssssssssssssss",
"ssssssssssss*....$$$$$$$$$$$$$$$,,,,.sssssssssssss",
"ssssssssss*$$$$$$$$$$$$$$$$$$$$$.,,,,.ssssssssssss",
"sssssssss)$$$$$$$$$$$$$$$$$$$$$$$,,,,.ssssssssssss",
"ssssssss*$$$$$$$$$$$$$$$$$$$$$$$$,,,,,xsssssssssss",
"ssssssss.$$$$$$$$$$$$$$$$$$$$$$$$..,,,&xssssssssss",
"ssssssss$$$$$$$$$$$$$$$$$$$$$$$$$$$$.,,,.xssssssss",
"ssssssss$$$$$$$$$$$$$$$$$$$$$$$$$$$$$.,,,.ssssssss",
"ssssssss$$$$$$$$$$$$$$$$$$$$$$$$$$$$$$,,,,xsssssss",
"ssssssss$$$$$$$$$$$$$$$$$$$$$$$$$$$$$$,,,,---sssss",
"sssss*&*)$$$$$$$$$$$$$$$$$$$$$$$$$$$$$...,,,,,ssss",
"sss)$$$$$$$$$$$$$$$$$$$$$$$$$$$$$$$$$$$$$$.,,,ssss",
"ss*$$$$$$$$$$$$$$$$$$$$$$$$$$$$$$$$$$$$$$$$.,-ssss",
"ss*$$$$$$$$$$$$$$$$$$$$$$$$$$$$$$$$$$$$$$$$*ssssss",
"sss$$$$$$$$$$$$$$$$$$$$$$$$$$$$$$$$$$$$$$$$sssssss",
"sss*.$$$$$$$$$$$$$$$$$$$$$$$$$$$$$$$$$$$$)*sssssss",
"ssssssssssssssssssssssssssssssssssssssssssssssssss",
"sssssssssss'ssssssssssssssssssssssssssssssssssssss",
"ssssssssss_/(sssssssq'sssss&ss(:ssq/(ss:ssssssssss",
"ssssssssss_/(sss<sss*'sssss:ss(_ss&//xs&ssssssssss",
"ssssssssss_/(sss/ssssss''sssss(_ss*//xssss:sssssss",
"ssssssssss_/(sss/ssssss_(sssss(_ss*//ussss*sssssss",
"ssssssssss_/(sss/ssssss_(sssss<&ss*//ussssssssssss",
"sssssss:ss_/(sss/sss(_s_(sssssssss&//sssssssssssss",
"ssssssssss_/(sss/sss//s_(ssss''ssss(_ussssssssssss",
"ssssssssss_/(ssu(sss//s_(sssssssssssssssssssssssss",
"ssssssssss_/(sssssss//s_(sssssssssssssssssssssssss",
"ssssssssss:/:sss:&ss//s_(ss'ssssssssssssssssssssss",
"ssssssssssssssssssss//s__ss's(*sssssssssssssssssss",
"ssssssssssssssssssss//sssssss/'sssssssssssssssssss",
"ssssssssss'&ssssssss//sssssss/'s:sssssssssssssssss",
"ssssssssss'&ssssssss//sssssss/'sssssssssssssssssss",
"ssssssssssssss/'ssss//sssssss/'sssssssssssssssssss",
"sssssssssssssq/:ssss/(sssssss/'sssssssssssssssssss",
"ssssssssssssss/:sssssssssssss/'sssssssssssssssssss",
"ssssssssssssss/:sssssssssssss/'sssssssssssssssssss",
"ssssssssssssss/:sssssssssssss/&sssssssssssssssssss",
"ssssssssssssss/:ssssssssssssssssssssssssssssssssss",
"ssssssssssssss/:ssssssssssssssssssssssssssssssssss",
"ssssssssssssss/:ssssssssssssssssssssssssssssssssss",
"ssssssssssssss_sssssssssssssssssssssssssssssssssss",
"ssssssssssssssssssssssssssssssssssssssssssssssssss",
"ssssssssssssssssssssssssssssssssssssssssssssssssss",
"ssssssssssssssssssssssssssssssssssssssssssssssssss"};
