/* XPM */
static char * C:\Users\Grace\Documents\UBC_Grace\Year_3\CPEN_391\391_Computer\Graphics\spotify_xpm[] = {
"60 60 65 1",
" 	c None",
".	c #000000",
"+	c #2F343F",
"@	c #63676E",
"#	c #979B9E",
"$	c #2F343F",
"%	c #505659",
"&	c #7D8A83",
"*	c #222D31",
"=	c #282B28",
"-	c #133410",
";	c #212D32",
">	c #37264B",
",	c #521F52",
"'	c #20323F",
")	c #203537",
"!	c #293337",
"~	c #C5E89B",
"{	c #96C161",
"]	c #519331",
"^	c #306E12",
"/	c #2B4D00",
"(	c #6CA299",
"_	c #43877B",
":	c #246C60",
"<	c #0D5146",
"[	c #00362D",
"}	c #FFEFAA",
"|	c #D4C06A",
"1	c #AC9432",
"2	c #806B15",
"3	c #554500",
"4	c #FFD8AA",
"5	c #D4A36A",
"6	c #AC7332",
"7	c #804E15",
"8	c #552E00",
"9	c #FFAAAA",
"0	c #D4706A",
"a	c #AA3939",
"b	c #801515",
"c	c #550000",
"d	c #CB87AF",
"e	c #A95486",
"f	c #651142",
"g	c #440028",
"h	c #708FA3",
"i	c #486F88",
"j	c #123852",
"k	c #123852",
"l	c #032236",
"m	c #8C7AAE",
"n	c #675091",
"o	c #472E74",
"p	c #2D1657",
"q	c #18063A",
"r	c #1ED760",
"s	c #020E02",
"t	c #06100E",
"u	c #1B1A0A",
"v	c #120C03",
"w	c #46454D",
"x	c #1D1C21",
"y	c #050C14",
"z	c #FBFBFB",
"zzzzzzzzzzzzzzzzzzzzzzzzzzzzzzzzzzzzzzzzzzzzzzzzzzzzzzzzzzzz",
"zzzzzzzzzzzzzzzzzzzzzzzzzzzzzzzzzzzzzzzzzzzzzzzzzzzzzzzzzzzz",
"zzzzzzzzzzzzzzzzzzzzzzzzzzzzzzzzzzzzzzzzzzzzzzzzzzzzzzzzzzzz",
"zzzzzzzzzzzzzzzzzzzzzzzzrrrrrrrrrrrrzzzzzzzzzzzzzzzzzzzzzzzz",
"zzzzzzzzzzzzzzzzzzzzzrrrrrrrrrrrrrrrrrrzzzzzzzzzzzzzzzzzzzzz",
"zzzzzzzzzzzzzzzzzzrrrrrrrrrrrrrrrrrrrrrrrrzzzzzzzzzzzzzzzzzz",
"zzzzzzzzzzzzzzzzrrrrrrrrrrrrrrrrrrrrrrrrrrrrzzzzzzzzzzzzzzzz",
"zzzzzzzzzzzzzzzrrrrrrrrrrrrrrrrrrrrrrrrrrrrrrzzzzzzzzzzzzzzz",
"zzzzzzzzzzzzzrrrrrrrrrrrrrrrrrrrrrrrrrrrrrrrrrrzzzzzzzzzzzzz",
"zzzzzzzzzzzzrrrrrrrrrrrrrrrrrrrrrrrrrrrrrrrrrrrrzzzzzzzzzzzz",
"zzzzzzzzzzzrrrrrrrrrrrrrrrrrrrrrrrrrrrrrrrrrrrrrrzzzzzzzzzzz",
"zzzzzzzzzzrrrrrrrrrrrrrrrrrrrrrrrrrrrrrrrrrrrrrrrrzzzzzzzzzz",
"zzzzzzzzzrrrrrrrrrrrrrrrrrrrrrrrrrrrrrrrrrrrrrrrrrrzzzzzzzzz",
"zzzzzzzzrrrrrrrrrrrrrrrrrrrrrrrrrrrrrrrrrrrrrrrrrrrrzzzzzzzz",
"zzzzzzzzrrrrrrrrrrrrrrrrrrrrrrrrrrrrrrrrrrrrrrrrrrrrzzzzzzzz",
"zzzzzzzrrrrrrrrrrrrrrrrrrrrrrrrrrrrrrrrrrrrrrrrrrrrrrzzzzzzz",
"zzzzzzrrrrrrrrrrrrrrrrrrrrrrrrrrrrrrrrrrrrrrrrrrrrrrrrzzzzzz",
"zzzzzzrrrrrrrrrrrrr]]]^^^^^^^^]]]rrrrrrrrrrrrrrrrrrrrrzzzzzz",
"zzzzzrrrrrrrrr]^-vvvvvvvvvvvvvvvvvvu/]]rrrrrrrrrrrrrrrrzzzzz",
"zzzzzrrrrrrr/vvvvvvvvvvvvvvvvvvvvvvvvvvv-]rrrrrrrrrrrrrzzzzz",
"zzzzzrrrrrr]vvvvvvvvvvvvvvvvvvvvvvvvvvvvvvv-]rrrrrrrrrrzzzzz",
"zzzzrrrrrrr^vvvvvvvvvvvvvvvvvvvvvvvvvvvvvvvvvu]rrrrrrrrrzzzz",
"zzzzrrrrrrr]vvvvvv-^]]]rrrrrr]]]^/uvvvvvvvvvvvvu]rrrrrrrzzzz",
"zzzzrrrrrrrr]-^]rrrrrrrrrrrrrrrrrrrrr]/vvvvvvvvvv]rrrrrrzzzz",
"zzzrrrrrrrrrrrrrrrrrrrrrrrrrrrrrrrrrrrrr]^vvvvvvv-rrrrrrrzzz",
"zzzrrrrrrrrrrrrrrrrrrrrrrrrrrrrrrrrrrrrrrrr]=vvvv^rrrrrrrzzz",
"zzzrrrrrrrrrrrrrrrrrrrrr]]]rrrrrrrrrrrrrrrrrr]uv-rrrrrrrrzzz",
"zzzrrrrrrrrrrrrr]^/uvvvvvvvvvvvu/^]rrrrrrrrrrrrrrrrrrrrrrzzz",
"zzzrrrrrrrrrrr-vvvvvvvvvvvvvvvvvvvvv-^rrrrrrrrrrrrrrrrrrrzzz",
"zzzrrrrrrrrrr/vvvvvvvvvvvvvvvvvvvvvvvvv-]rrrrrrrrrrrrrrrrzzz",
"zzzrrrrrrrrrr-vvvvvvvt--^^/--vvvvvvvvvvvvv^rrrrrrrrrrrrrrzzz",
"zzzrrrrrrrrrr]vv-^]rrrrrrrrrrrrr]^-vvvvvvvvv^rrrrrrrrrrrrzzz",
"zzzrrrrrrrrrrrrrrrrrrrrrrrrrrrrrrrrr]/vvvvvvv/rrrrrrrrrrrzzz",
"zzzrrrrrrrrrrrrrrrrrrrrrrrrrrrrrrrrrrrr]-vvvvvrrrrrrrrrrrzzz",
"zzzrrrrrrrrrrrrrrrrrrrrrrrrrrrrrrrrrrrrrr]=vv/rrrrrrrrrrrzzz",
"zzzrrrrrrrrrrrrrrrrrrr]]]]]]]]rrrrrrrrrrrrr]]rrrrrrrrrrrrzzz",
"zzzzrrrrrrrrrrrr]^-vvvvvvvvvvvvv-^]rrrrrrrrrrrrrrrrrrrrrzzzz",
"zzzzrrrrrrrrrr]vvvvvvvvvvvvvvvvvvvvv-]rrrrrrrrrrrrrrrrrrzzzz",
"zzzzrrrrrrrrrr^vvvvvvv=--//--vvvvvvvvvu]rrrrrrrrrrrrrrrrzzzz",
"zzzzzrrrrrrrrrr--^]rrrrrrrrrrrrr]^uvvvvvu]rrrrrrrrrrrrrzzzzz",
"zzzzzrrrrrrrrrrrrrrrrrrrrrrrrrrrrrr]^vvvvv]rrrrrrrrrrrrzzzzz",
"zzzzzrrrrrrrrrrrrrrrrrrrrrrrrrrrrrrrrr^vvv^rrrrrrrrrrrrzzzzz",
"zzzzzzrrrrrrrrrrrrrrrrrrrrrrrrrrrrrrrrrr^^rrrrrrrrrrrrzzzzzz",
"zzzzzzrrrrrrrrrrrrrrrrrrrrrrrrrrrrrrrrrrrrrrrrrrrrrrrrzzzzzz",
"zzzzzzzrrrrrrrrrrrrrrrrrrrrrrrrrrrrrrrrrrrrrrrrrrrrrrzzzzzzz",
"zzzzzzzzrrrrrrrrrrrrrrrrrrrrrrrrrrrrrrrrrrrrrrrrrrrrzzzzzzzz",
"zzzzzzzzrrrrrrrrrrrrrrrrrrrrrrrrrrrrrrrrrrrrrrrrrrrrzzzzzzzz",
"zzzzzzzzzrrrrrrrrrrrrrrrrrrrrrrrrrrrrrrrrrrrrrrrrrrzzzzzzzzz",
"zzzzzzzzzzrrrrrrrrrrrrrrrrrrrrrrrrrrrrrrrrrrrrrrrrzzzzzzzzzz",
"zzzzzzzzzzzrrrrrrrrrrrrrrrrrrrrrrrrrrrrrrrrrrrrrrzzzzzzzzzzz",
"zzzzzzzzzzzzrrrrrrrrrrrrrrrrrrrrrrrrrrrrrrrrrrrrzzzzzzzzzzzz",
"zzzzzzzzzzzzzrrrrrrrrrrrrrrrrrrrrrrrrrrrrrrrrrrzzzzzzzzzzzzz",
"zzzzzzzzzzzzzzzrrrrrrrrrrrrrrrrrrrrrrrrrrrrrrzzzzzzzzzzzzzzz",
"zzzzzzzzzzzzzzzzrrrrrrrrrrrrrrrrrrrrrrrrrrrrzzzzzzzzzzzzzzzz",
"zzzzzzzzzzzzzzzzzzrrrrrrrrrrrrrrrrrrrrrrrrzzzzzzzzzzzzzzzzzz",
"zzzzzzzzzzzzzzzzzzzzzrrrrrrrrrrrrrrrrrrzzzzzzzzzzzzzzzzzzzzz",
"zzzzzzzzzzzzzzzzzzzzzzzzrrrrrrrrrrrrzzzzzzzzzzzzzzzzzzzzzzzz",
"zzzzzzzzzzzzzzzzzzzzzzzzzzzzzzzzzzzzzzzzzzzzzzzzzzzzzzzzzzzz",
"zzzzzzzzzzzzzzzzzzzzzzzzzzzzzzzzzzzzzzzzzzzzzzzzzzzzzzzzzzzz",
"zzzzzzzzzzzzzzzzzzzzzzzzzzzzzzzzzzzzzzzzzzzzzzzzzzzzzzzzzzzz"};
